<svg width="32" height="32" viewBox="0 0 16 16" xmlns="http://www.w3.org/2000/svg">
  <rect x="3" y="3" width="1" height="1" fill="#4d72df"/>
  <rect x="4" y="4" width="1" height="1" fill="#4d72df"/>
  <rect x="5" y="5" width="1" height="1" fill="#4d72df"/>
  <rect x="10" y="4" width="1" height="1" fill="#4d72df"/>
  <rect x="11" y="5" width="1" height="1" fill="#4d72df"/>
  <rect x="6" y="5" width="4" height="1" fill="#4d72df"/>
  <rect x="5" y="6" width="6" height="1" fill="#4d72df"/>
  <rect x="5" y="7" width="6" height="1" fill="#4d72df"/>
  <rect x="5" y="8" width="6" height="1" fill="#4d72df"/>
  <rect x="6" y="9" width="4" height="1" fill="#4d72df"/>
  <rect x="6" y="6" width="1" height="2" fill="#0a0c0f"/>
  <rect x="9" y="7" width="1" height="1" fill="#0a0c0f"/>
  <rect x="7" y="10" width="3" height="1" fill="#4d72df"/>
  <rect x="6" y="11" width="4" height="1" fill="#4d72df"/>
  <rect x="11" y="10" width="1" height="1" fill="#4d72df"/>
  <rect x="12" y="9" width="1" height="1" fill="#4d72df"/>
</svg>
